<svg viewBox="0 0 66 66" xml:space="preserve" xmlns="http://www.w3.org/2000/svg" enable-background="new 0 0 66 66"><path d="M48 55.6c-.6-1.2-1.9-2-3.3-1.9h-.1l-11.3 2c0-.1 0-.1.1-.2.2-1.6-.7-3-2.3-3.5-6.9-1.8-15.4-2.1-21.8-1-.2-.3-.6-.5-1-.4l-6.1 1.2c-.3 0-.5.2-.6.4-.1.2-.2.5-.1.8l2.4 11.3c.1.5.5.8 1 .8h.2l6.1-1.2c.2 0 .3-.1.5-.3l6.2.9c2.5.4 4.9.5 7.4.5 7.3 0 14.5-1.6 21.2-4.7.9-.4 1.5-1.1 1.8-2 .2-.9.1-1.9-.3-2.7zM5.5 62.8l-2-9.3 4.2-.8 2 9.3-4.2.8zM64.6 13.1 62.3 1.8c-.1-.5-.6-.9-1.2-.8L55 2.2c-.2 0-.3.1-.5.3l-6.2-.9c-9.8-1.4-19.7 0-28.7 4.1-.9.4-1.5 1.1-1.8 2-.3.9-.2 1.9.2 2.7.6 1.2 1.8 1.9 3.1 1.9H21.4l11.3-1.9c0 .1 0 .1-.1.2-.2 1.6.7 3 2.2 3.5 4.3 1.1 9.2 1.7 13.8 1.7 2.8 0 5.5-.2 8-.6.2.2.5.4.8.4h.2l6.1-1.2c.3-.1.5-.2.6-.4.4-.4.4-.6.3-.9zm-29.1-.9c-.6-.2-.9-.7-.8-1.3.1-.6.7-1.1 1.3-1h.1l8.9.3c.6 0 1-.4 1-1s-.4-1-1-1L36.1 8c-.3-.1-.7 0-1 0h-.2L21 10.4c-.6 0-1.1-.3-1.4-.8-.2-.4-.2-.8-.1-1.2.1-.4.4-.7.8-.9 8.6-4 18.1-5.3 27.5-4l6.4.9 1.8 8.7c-5.9 1.1-13.9.7-20.5-.9zM44.4 22.9H34c1.9-1.4 2.8-3.2 2-4.5-.9-1.6-3.5-1.7-6.3-.1-.8.4-1.4.9-2 1.4-.2-.7-.5-1.4-.9-2.1-.8-1.4-1.8-2.5-2.8-3.2-1.2-.8-2.4-1-3.3-.5-.9.5-1.4 1.6-1.2 3.1.1 1.2.6 2.6 1.3 3.9.4.7.9 1.4 1.4 1.9H10.3c-.6 0-1 .4-1 1v5.1c0 .5.4 1 1 1h1.9v17.3c0 .5.4 1 1 1h28.3c.6 0 1-.5 1-1V30.1h1.9c.6 0 1-.5 1-1V24c0-.6-.4-1.1-1-1.1zm-22.2 2h10.3V28H22.2v-3.1zm1.2 21.5h-9.1V30.1h9.1v16.3zm17.2 0h-9.1V30.1h9.1v16.3z" fill="#0d6aff" class="fill-000000"></path></svg>