<svg viewBox="0 0 16 16" xmlns="http://www.w3.org/2000/svg"><g data-name="Layer 7"><path d="M14 .5H2a2.002 2.002 0 0 0-2 2v11a2.002 2.002 0 0 0 2 2h12a2.002 2.002 0 0 0 2-2v-11a2.002 2.002 0 0 0-2-2Zm1 13a1 1 0 0 1-1 1H2a1 1 0 0 1-1-1v-11a1 1 0 0 1 1-1h12a1 1 0 0 1 1 1Z" fill="#126cfc" class="fill-000000"></path><path d="M5 4h6a.5.5 0 0 0 0-1H5a.5.5 0 0 0 0 1Z" fill="#126cfc" class="fill-000000"></path><circle cx="3" cy="3.5" r=".5" fill="#126cfc" class="fill-000000"></circle><circle cx="13" cy="3.5" r=".5" fill="#126cfc" class="fill-000000"></circle><path d="M8 5.125a4 4 0 1 0 4 4 4.004 4.004 0 0 0-4-4Zm0 7a3 3 0 1 1 3-3 3.003 3.003 0 0 1-3 3Z" fill="#126cfc" class="fill-000000"></path><path d="M9.146 7.771 7.5 9.418l-.646-.646a.5.5 0 0 0-.707.706l1 1a.5.5 0 0 0 .707 0l2-2a.5.5 0 0 0-.707-.706Z" fill="#126cfc" class="fill-000000"></path></g></svg>