<svg viewBox="0 0 32 32" xmlns="http://www.w3.org/2000/svg"><path d="M16 9a8 8 0 0 0-8 8v6a1 1 0 0 0 1 1h14a1 1 0 0 0 1-1v-6a8 8 0 0 0-8-8Z" fill="#ff0314" class="fill-0593ff"></path><path d="M16 7a1 1 0 0 1-1-1V4a1 1 0 0 1 2 0v2a1 1 0 0 1-1 1ZM8.22 10.22a1 1 0 0 1-.71-.29L6.1 8.51A1 1 0 0 1 7.51 7.1l1.42 1.41a1 1 0 0 1 0 1.42 1 1 0 0 1-.71.29ZM5 18H3a1 1 0 0 1 0-2h2a1 1 0 0 1 0 2ZM23.78 10.22a1 1 0 0 1-.71-.29 1 1 0 0 1 0-1.42l1.42-1.41a1 1 0 1 1 1.41 1.41l-1.41 1.42a1 1 0 0 1-.71.29ZM29 18h-2a1 1 0 0 1 0-2h2a1 1 0 0 1 0 2ZM20 18a1 1 0 0 1-1-1 3 3 0 0 0-3-3 1 1 0 0 1 0-2 5 5 0 0 1 5 5 1 1 0 0 1-1 1Z" fill="#a61736" class="fill-0e6ae0"></path><rect height="7" rx="2" ry="2" width="22" x="5" y="22" fill="#d8e1ef" class="fill-d8e1ef"></rect></svg>